<?xml version="1.0" encoding="UTF-8"?>
<svg width="26px" height="134px" viewBox="0 0 26 134" version="1.1" xmlns="http://www.w3.org/2000/svg" xmlns:xlink="http://www.w3.org/1999/xlink">
    <!-- Generator: Sketch 53.2 (72643) - https://sketchapp.com -->
    <title>Combined Shape</title>
    <desc>Created with Sketch.</desc>
    <defs>
        <linearGradient x1="50%" y1="-14.0135761%" x2="50%" y2="100%" id="linearGradient-1">
            <stop stop-color="#4E4E4E" stop-opacity="0.0516280594" offset="0%"></stop>
            <stop stop-color="#4E4E4E" offset="100%"></stop>
        </linearGradient>
    </defs>
    <g id="squeezeGenerator" stroke="none" stroke-width="1" fill="none" fill-rule="evenodd" opacity="0.409621466">
        <g id="Artboard" transform="translate(-153.000000, -278.000000)" fill="url(#linearGradient-1)">
            <path d="M174.999999,404.00345 C174.998135,408.420142 171.417128,412 167,412 L164,412 C160.110667,412 156.869579,409.224533 156.149292,405.546155 C156.111963,407.184111 156.073892,408.835497 156.035079,410.500314 L156.035057,410.500314 C156.015617,411.334162 155.334075,412 154.5,412 C153.671573,412 153,411.328427 153,410.5 L153,294.095275 C153,293.699615 153.117356,293.312844 153.33722,292.983896 L154.5,291.244213 C154.996387,290.501548 156.000837,290.3019 156.743502,290.798286 C157.184861,291.093285 157.453361,291.586087 157.461931,292.116887 C157.486644,293.648709 157.50655,295.359542 157.521647,297.249384 L163.765795,281.037377 C164.555428,278.987213 166.857537,277.965351 168.9077,278.754983 C169.899829,279.137107 170.69771,279.90048 171.123297,280.874756 L174.331078,288.218181 C174.77024,289.223533 174.997905,290.308417 174.999986,291.405392 L174.999985,285.453069 C174.999985,284.868394 175.473958,284.394421 176.058633,284.394421 C176.45523,284.394421 176.818562,284.616092 177,284.968753 C177.445699,285.83506 178.095526,288.131541 178.949479,291.858197 C178.983051,292.004732 179,292.154583 179,292.304914 L179,410 C179,411.104569 178.104569,412 177,412 C175.895431,412 175,411.104569 175,410 L174.999999,404.00345 Z" id="Combined-Shape"></path>
        </g>
    </g>
</svg>