<?xml version="1.0" encoding="UTF-8"?>
<svg width="97px" height="96px" viewBox="0 0 97 96" version="1.1" xmlns="http://www.w3.org/2000/svg" xmlns:xlink="http://www.w3.org/1999/xlink">
    <!-- Generator: Sketch 53.2 (72643) - https://sketchapp.com -->
    <title>Combined Shape</title>
    <desc>Created with Sketch.</desc>
    <defs>
        <linearGradient x1="14.695382%" y1="14.0001833%" x2="89.4370048%" y2="80.073795%" id="linearGradient-1">
            <stop stop-color="#EEEEEE" offset="0%"></stop>
            <stop stop-color="#D8D8D8" offset="100%"></stop>
        </linearGradient>
    </defs>
    <g id="squeezeGenerator" stroke="none" stroke-width="1" fill="none" fill-rule="evenodd">
        <g id="Artboard" transform="translate(-68.000000, -37.000000)" fill="url(#linearGradient-1)">
            <path d="M115,37 L117,37 L117,54 L115,54 L115,37 Z M165,84 L165,86 L148,86 L148,84 L165,84 Z M116,116 L118,116 L118,133 L116,133 L116,116 Z M85,84 L85,86 L68,86 L68,84 L85,84 Z M137,110.414214 L138.414214,109 L146.899495,117.485281 L145.485281,118.899495 L137,110.414214 Z M93.0208153,105 L94.4350288,106.414214 L83.8284271,117.020815 L82.4142136,115.606602 L93.0208153,105 Z M83.1213203,52.5355339 L84.5355339,51.1213203 L94.4350288,61.0208153 L93.0208153,62.4350288 L83.1213203,52.5355339 Z M144.778175,53.2426407 L146.192388,54.6568542 L138.414214,62.4350288 L137,61.0208153 L144.778175,53.2426407 Z" id="Combined-Shape"></path>
        </g>
    </g>
</svg>