<?xml version="1.0" encoding="UTF-8"?>
<svg width="490px" height="300px" viewBox="0 0 490 300" version="1.1" xmlns="http://www.w3.org/2000/svg" xmlns:xlink="http://www.w3.org/1999/xlink">
    <!-- Generator: Sketch 53.2 (72643) - https://sketchapp.com -->
    <title>Group</title>
    <desc>Created with Sketch.</desc>
    <defs>
        <path d="M0,-3.41060513e-13 L338.864259,-3.41060513e-13 C377.172498,3.02009068 407.551079,18.0200907 430,45 C463.673382,85.469864 457.501814,109.231771 453,137.172378 C450.100023,155.171151 438.194455,181.003775 417.283297,214.670249 L417.283299,214.67025 C410.581039,225.460732 396.40037,228.774891 385.609888,222.072631 C377.849691,217.252562 373.677726,208.29674 374.980471,199.254806 C380.416725,161.523514 378.824823,133.49583 370.204765,115.171754 C364.166117,102.335108 344.69145,93.9445231 311.780765,90 L45.1416226,90 L0,-3.41060513e-13 Z" id="path-1"></path>
        <path d="M210,34.0088009 L210.000001,203.718035 C210.000001,222.495717 194.777682,237.718037 176,237.718037 C171.43944,237.718037 166.925489,236.800539 162.726808,235.020151 C54.2422692,189.01891 1.42108547e-14,150.253279 1.42108547e-14,118.723257 C1.5943745e-14,87.1886965 54.257887,48.5098976 162.773661,2.68686054 L162.773661,2.68686062 C180.072291,-4.61784481 200.017235,3.48383177 207.32194,20.7824617 C209.08938,24.9680221 210,29.4653707 210,34.0088009 Z" id="path-3"></path>
    </defs>
    <g id="squeezeGenerator" stroke="none" stroke-width="1" fill="none" fill-rule="evenodd">
        <g id="Artboard" transform="translate(-26.000000, -35.000000)">
            <g id="Group" transform="translate(26.000000, 35.000000)">
                <g id="Rectangle" transform="translate(33.000000, 73.997580)">
                    <mask id="mask-2" fill="white">
                        <use xlink:href="#path-1"></use>
                    </mask>
                    <use id="Mask" fill-opacity="0.210910184" fill="#000000" xlink:href="#path-1"></use>
                    <path d="M0,-3.26849658e-13 L315.426168,-3.26849658e-13 C351.084756,3.02009068 379.362153,18.0200907 400.258358,45 C431.602667,85.469864 425.857965,109.231771 421.667526,137.172378 C421.667526,137.172378 421.667526,137.172378 421.667526,137.172378 L421.667526,137.172378 C418.72042,156.822811 400.401495,170.363533 380.751062,167.416427 C365.061081,165.063297 352.764536,152.710507 350.483031,137.009952 C349.265059,128.627953 347.303685,121.348556 344.598957,115.171754 C338.977981,102.335108 320.850312,93.9445231 290.215947,90 L41.591331,84 L0,-3.26849658e-13 Z" fill="#000000" mask="url(#mask-2)"></path>
                </g>
                <g id="Rectangle">
                    <mask id="mask-4" fill="white">
                        <use xlink:href="#path-3"></use>
                    </mask>
                    <use id="Mask" fill-opacity="0.099732299" fill="#000000" xlink:href="#path-3"></use>
                    <path d="M210,27.7894582 L209.999999,179.498643 C209.999999,198.276324 194.777681,213.498643 176,213.498643 C173.723357,213.498643 171.45247,213.269978 169.22153,212.816091 C47.091509,187.968608 -9.31566729,151.324029 1.2099261e-06,102.882353 C9.12635764,55.4251041 65.1536663,19.3724227 168.081927,-5.27569122 L168.081927,-5.27569033 C186.343305,-9.64872164 204.692118,1.6100073 209.065149,19.8713846 C209.686226,22.4649444 210,25.1225707 210,27.7894582 Z" fill="#000000" mask="url(#mask-4)"></path>
                </g>
            </g>
        </g>
    </g>
</svg>